<?xml version="1.0" encoding="UTF-8" standalone="no"?>
<!DOCTYPE svg PUBLIC "-//W3C//DTD SVG 1.1//EN"
 "http://www.w3.org/Graphics/SVG/1.1/DTD/svg11.dtd">
<!-- Generated by graphviz version 2.40.1 (20161225.0304)
 -->
<!-- Title: dependencies Pages: 1 -->
<svg width="1898pt" height="284pt"
 viewBox="0.00 0.00 1898.00 284.00" xmlns="http://www.w3.org/2000/svg" xmlns:xlink="http://www.w3.org/1999/xlink">
<g id="graph0" class="graph" transform="scale(1 1) rotate(0) translate(4 280)">
<title>dependencies</title>
<polygon fill="#ffffff" stroke="transparent" points="-4,4 -4,-280 1894,-280 1894,4 -4,4"/>
<text text-anchor="start" x="924.0091" y="-42.4" font-family="sans-serif" font-weight="bold" font-size="14.00" fill="#000000">Legend</text>
<polygon fill="#ffffb3" stroke="transparent" points="711,-10 711,-30 731,-30 731,-10 711,-10"/>
<text text-anchor="start" x="734.629" y="-15.4" font-family="sans-serif" font-size="14.00" fill="#000000"> &#160;Declarations</text>
<polygon fill="#8dd3c7" stroke="transparent" points="824,-10 824,-30 844,-30 844,-10 824,-10"/>
<text text-anchor="start" x="847.7251" y="-15.4" font-family="sans-serif" font-size="14.00" fill="#000000"> &#160;Module</text>
<polygon fill="#80b1d3" stroke="transparent" points="910,-10 910,-30 930,-30 930,-10 910,-10"/>
<text text-anchor="start" x="933.7812" y="-15.4" font-family="sans-serif" font-size="14.00" fill="#000000"> &#160;Bootstrap</text>
<polygon fill="#fdb462" stroke="transparent" points="1007,-10 1007,-30 1027,-30 1027,-10 1007,-10"/>
<text text-anchor="start" x="1030.6732" y="-15.4" font-family="sans-serif" font-size="14.00" fill="#000000"> &#160;Providers</text>
<polygon fill="#fb8072" stroke="transparent" points="1103,-10 1103,-30 1123,-30 1123,-10 1103,-10"/>
<text text-anchor="start" x="1126.7258" y="-15.4" font-family="sans-serif" font-size="14.00" fill="#000000"> &#160;Exports</text>
<g id="clust1" class="cluster">
<title>cluster_AppModule</title>
<polygon fill="none" stroke="#000000" stroke-dasharray="1,5" points="8,-70 8,-268 1882,-268 1882,-70 8,-70"/>
</g>
<g id="clust2" class="cluster">
<title>cluster_AppModule_declarations</title>
<polygon fill="none" stroke="#000000" points="322,-78 322,-130 1874,-130 1874,-78 322,-78"/>
</g>
<g id="clust14" class="cluster">
<title>cluster_AppModule_imports</title>
<polygon fill="none" stroke="#000000" points="170,-78 170,-130 314,-130 314,-78 170,-78"/>
</g>
<g id="clust16" class="cluster">
<title>cluster_AppModule_bootstrap</title>
<polygon fill="none" stroke="#000000" points="911,-208 911,-260 1035,-260 1035,-208 911,-208"/>
</g>
<g id="clust17" class="cluster">
<title>cluster_AppModule_providers</title>
<polygon fill="none" stroke="#000000" points="16,-78 16,-130 162,-130 162,-78 16,-78"/>
</g>
<!-- AboutComponent -->
<g id="node1" class="node">
<title>AboutComponent</title>
<polygon fill="#ffffb3" stroke="#000000" points="1866.3301,-122 1749.6699,-122 1749.6699,-86 1866.3301,-86 1866.3301,-122"/>
<text text-anchor="middle" x="1808" y="-99.8" font-family="Times,serif" font-size="14.00" fill="#000000">AboutComponent</text>
</g>
<!-- AppModule -->
<g id="node12" class="node">
<title>AppModule</title>
<polygon fill="#8dd3c7" stroke="#000000" points="1014.6571,-187 1011.6571,-191 990.6571,-191 987.6571,-187 931.3429,-187 931.3429,-151 1014.6571,-151 1014.6571,-187"/>
<text text-anchor="middle" x="973" y="-164.8" font-family="Times,serif" font-size="14.00" fill="#000000">AppModule</text>
</g>
<!-- AboutComponent&#45;&gt;AppModule -->
<g id="edge1" class="edge">
<title>AboutComponent&#45;&gt;AppModule</title>
<path fill="none" stroke="#000000" d="M1808,-122.0908C1808,-145.1328 1808,-182 1808,-182 1808,-182 1024.6935,-182 1024.6935,-182"/>
<polygon fill="#000000" stroke="#000000" points="1024.6935,-178.5001 1014.6935,-182 1024.6934,-185.5001 1024.6935,-178.5001"/>
</g>
<!-- AppComponent -->
<g id="node2" class="node">
<title>AppComponent</title>
<polygon fill="#ffffb3" stroke="#000000" points="1731.9399,-122 1626.0601,-122 1626.0601,-86 1731.9399,-86 1731.9399,-122"/>
<text text-anchor="middle" x="1679" y="-99.8" font-family="Times,serif" font-size="14.00" fill="#000000">AppComponent</text>
</g>
<!-- AppComponent&#45;&gt;AppModule -->
<g id="edge2" class="edge">
<title>AppComponent&#45;&gt;AppModule</title>
<path fill="none" stroke="#000000" d="M1679,-122.0449C1679,-143.6623 1679,-177 1679,-177 1679,-177 1024.7881,-177 1024.7881,-177"/>
<polygon fill="#000000" stroke="#000000" points="1024.7882,-173.5001 1014.7881,-177 1024.7881,-180.5001 1024.7882,-173.5001"/>
</g>
<!-- BlogComponent -->
<g id="node3" class="node">
<title>BlogComponent</title>
<polygon fill="#ffffb3" stroke="#000000" points="1608.0605,-122 1499.9395,-122 1499.9395,-86 1608.0605,-86 1608.0605,-122"/>
<text text-anchor="middle" x="1554" y="-99.8" font-family="Times,serif" font-size="14.00" fill="#000000">BlogComponent</text>
</g>
<!-- BlogComponent&#45;&gt;AppModule -->
<g id="edge3" class="edge">
<title>BlogComponent&#45;&gt;AppModule</title>
<path fill="none" stroke="#000000" d="M1554,-122.2228C1554,-142.3652 1554,-172 1554,-172 1554,-172 1024.7841,-172 1024.7841,-172"/>
<polygon fill="#000000" stroke="#000000" points="1024.7841,-168.5001 1014.7841,-172 1024.7841,-175.5001 1024.7841,-168.5001"/>
</g>
<!-- ContactComponent -->
<g id="node4" class="node">
<title>ContactComponent</title>
<polygon fill="#ffffb3" stroke="#000000" points="1481.3795,-122 1356.6205,-122 1356.6205,-86 1481.3795,-86 1481.3795,-122"/>
<text text-anchor="middle" x="1419" y="-99.8" font-family="Times,serif" font-size="14.00" fill="#000000">ContactComponent</text>
</g>
<!-- ContactComponent&#45;&gt;AppModule -->
<g id="edge4" class="edge">
<title>ContactComponent&#45;&gt;AppModule</title>
<path fill="none" stroke="#000000" d="M1419,-122.2222C1419,-140.8285 1419,-167 1419,-167 1419,-167 1024.9586,-167 1024.9586,-167"/>
<polygon fill="#000000" stroke="#000000" points="1024.9586,-163.5001 1014.9586,-167 1024.9586,-170.5001 1024.9586,-163.5001"/>
</g>
<!-- EmbedComponent -->
<g id="node5" class="node">
<title>EmbedComponent</title>
<polygon fill="#ffffb3" stroke="#000000" points="1338.2176,-122 1203.7824,-122 1203.7824,-86 1338.2176,-86 1338.2176,-122"/>
<text text-anchor="middle" x="1271" y="-99.8" font-family="Times,serif" font-size="14.00" fill="#000000">EmbedComponent</text>
</g>
<!-- EmbedComponent&#45;&gt;AppModule -->
<g id="edge5" class="edge">
<title>EmbedComponent&#45;&gt;AppModule</title>
<path fill="none" stroke="#000000" d="M1271,-122.0336C1271,-139.0597 1271,-162 1271,-162 1271,-162 1024.7494,-162 1024.7494,-162"/>
<polygon fill="#000000" stroke="#000000" points="1024.7494,-158.5001 1014.7494,-162 1024.7494,-165.5001 1024.7494,-158.5001"/>
</g>
<!-- PortfolioComponent -->
<g id="node6" class="node">
<title>PortfolioComponent</title>
<polygon fill="#ffffb3" stroke="#000000" points="1185.608,-122 1054.392,-122 1054.392,-86 1185.608,-86 1185.608,-122"/>
<text text-anchor="middle" x="1120" y="-99.8" font-family="Times,serif" font-size="14.00" fill="#000000">PortfolioComponent</text>
</g>
<!-- PortfolioComponent&#45;&gt;AppModule -->
<g id="edge6" class="edge">
<title>PortfolioComponent&#45;&gt;AppModule</title>
<path fill="none" stroke="#000000" d="M1120,-122.2396C1120,-137.5706 1120,-157 1120,-157 1120,-157 1024.7311,-157 1024.7311,-157"/>
<polygon fill="#000000" stroke="#000000" points="1024.7311,-153.5001 1014.7311,-157 1024.7311,-160.5001 1024.7311,-153.5001"/>
</g>
<!-- ProjectsComponent -->
<g id="node7" class="node">
<title>ProjectsComponent</title>
<polygon fill="#ffffb3" stroke="#000000" points="1036.4313,-122 909.5687,-122 909.5687,-86 1036.4313,-86 1036.4313,-122"/>
<text text-anchor="middle" x="973" y="-99.8" font-family="Times,serif" font-size="14.00" fill="#000000">ProjectsComponent</text>
</g>
<!-- ProjectsComponent&#45;&gt;AppModule -->
<g id="edge7" class="edge">
<title>ProjectsComponent&#45;&gt;AppModule</title>
<path fill="none" stroke="#000000" d="M973,-122.1061C973,-122.1061 973,-140.991 973,-140.991"/>
<polygon fill="#000000" stroke="#000000" points="969.5001,-140.9909 973,-150.991 976.5001,-140.991 969.5001,-140.9909"/>
</g>
<!-- ResumeComponent -->
<g id="node8" class="node">
<title>ResumeComponent</title>
<polygon fill="#ffffb3" stroke="#000000" points="892.4341,-122 765.5659,-122 765.5659,-86 892.4341,-86 892.4341,-122"/>
<text text-anchor="middle" x="829" y="-99.8" font-family="Times,serif" font-size="14.00" fill="#000000">ResumeComponent</text>
</g>
<!-- ResumeComponent&#45;&gt;AppModule -->
<g id="edge8" class="edge">
<title>ResumeComponent&#45;&gt;AppModule</title>
<path fill="none" stroke="#000000" d="M829,-122.2396C829,-137.5706 829,-157 829,-157 829,-157 920.9621,-157 920.9621,-157"/>
<polygon fill="#000000" stroke="#000000" points="920.9622,-160.5001 930.9621,-157 920.9621,-153.5001 920.9622,-160.5001"/>
</g>
<!-- ServicesComponent -->
<g id="node9" class="node">
<title>ServicesComponent</title>
<polygon fill="#ffffb3" stroke="#000000" points="747.2548,-122 618.7452,-122 618.7452,-86 747.2548,-86 747.2548,-122"/>
<text text-anchor="middle" x="683" y="-99.8" font-family="Times,serif" font-size="14.00" fill="#000000">ServicesComponent</text>
</g>
<!-- ServicesComponent&#45;&gt;AppModule -->
<g id="edge9" class="edge">
<title>ServicesComponent&#45;&gt;AppModule</title>
<path fill="none" stroke="#000000" d="M683,-122.0336C683,-139.0597 683,-162 683,-162 683,-162 921.1412,-162 921.1412,-162"/>
<polygon fill="#000000" stroke="#000000" points="921.1413,-165.5001 931.1412,-162 921.1412,-158.5001 921.1413,-165.5001"/>
</g>
<!-- SidenavComponent -->
<g id="node10" class="node">
<title>SidenavComponent</title>
<polygon fill="#ffffb3" stroke="#000000" points="600.4356,-122 473.5644,-122 473.5644,-86 600.4356,-86 600.4356,-122"/>
<text text-anchor="middle" x="537" y="-99.8" font-family="Times,serif" font-size="14.00" fill="#000000">SidenavComponent</text>
</g>
<!-- SidenavComponent&#45;&gt;AppModule -->
<g id="edge10" class="edge">
<title>SidenavComponent&#45;&gt;AppModule</title>
<path fill="none" stroke="#000000" d="M537,-122.2222C537,-140.8285 537,-167 537,-167 537,-167 921.1945,-167 921.1945,-167"/>
<polygon fill="#000000" stroke="#000000" points="921.1945,-170.5001 931.1945,-167 921.1945,-163.5001 921.1945,-170.5001"/>
</g>
<!-- ToolbarComponent -->
<g id="node11" class="node">
<title>ToolbarComponent</title>
<polygon fill="#ffffb3" stroke="#000000" points="455.6513,-122 330.3487,-122 330.3487,-86 455.6513,-86 455.6513,-122"/>
<text text-anchor="middle" x="393" y="-99.8" font-family="Times,serif" font-size="14.00" fill="#000000">ToolbarComponent</text>
</g>
<!-- ToolbarComponent&#45;&gt;AppModule -->
<g id="edge11" class="edge">
<title>ToolbarComponent&#45;&gt;AppModule</title>
<path fill="none" stroke="#000000" d="M393,-122.2228C393,-142.3652 393,-172 393,-172 393,-172 921.2878,-172 921.2878,-172"/>
<polygon fill="#000000" stroke="#000000" points="921.2879,-175.5001 931.2878,-172 921.2878,-168.5001 921.2879,-175.5001"/>
</g>
<!-- AppComponent  -->
<g id="node14" class="node">
<title>AppComponent </title>
<polygon fill="#80b1d3" stroke="#000000" points="1027.439,-252 918.561,-252 918.561,-216 1027.439,-216 1027.439,-252"/>
<text text-anchor="middle" x="973" y="-229.8" font-family="Times,serif" font-size="14.00" fill="#000000">AppComponent </text>
</g>
<!-- AppModule&#45;&gt;AppComponent  -->
<g id="edge13" class="edge">
<title>AppModule&#45;&gt;AppComponent </title>
<path fill="none" stroke="#000000" stroke-dasharray="1,5" d="M973,-187.1061C973,-187.1061 973,-205.991 973,-205.991"/>
<polygon fill="#000000" stroke="#000000" points="969.5001,-205.9909 973,-215.991 976.5001,-205.991 969.5001,-205.9909"/>
</g>
<!-- AppRoutingModule -->
<g id="node13" class="node">
<title>AppRoutingModule</title>
<polygon fill="#8dd3c7" stroke="#000000" points="306.2744,-122 303.2744,-126 282.2744,-126 279.2744,-122 177.7256,-122 177.7256,-86 306.2744,-86 306.2744,-122"/>
<text text-anchor="middle" x="242" y="-99.8" font-family="Times,serif" font-size="14.00" fill="#000000">AppRoutingModule</text>
</g>
<!-- AppRoutingModule&#45;&gt;AppModule -->
<g id="edge12" class="edge">
<title>AppRoutingModule&#45;&gt;AppModule</title>
<path fill="none" stroke="#000000" d="M242,-122.0449C242,-143.6623 242,-177 242,-177 242,-177 921.3386,-177 921.3386,-177"/>
<polygon fill="#000000" stroke="#000000" points="921.3387,-180.5001 931.3386,-177 921.3386,-173.5001 921.3387,-180.5001"/>
</g>
<!-- FooterService -->
<g id="node15" class="node">
<title>FooterService</title>
<ellipse fill="#fdb462" stroke="#000000" cx="89" cy="-104" rx="65.4053" ry="18"/>
<text text-anchor="middle" x="89" y="-99.8" font-family="Times,serif" font-size="14.00" fill="#000000">FooterService</text>
</g>
<!-- FooterService&#45;&gt;AppModule -->
<g id="edge14" class="edge">
<title>FooterService&#45;&gt;AppModule</title>
<path fill="none" stroke="#000000" d="M89,-122.0908C89,-145.1328 89,-182 89,-182 89,-182 921.2535,-182 921.2535,-182"/>
<polygon fill="#000000" stroke="#000000" points="921.2535,-185.5001 931.2535,-182 921.2535,-178.5001 921.2535,-185.5001"/>
</g>
</g>
</svg>
